<svg xmlns="http://www.w3.org/2000/svg" xmlns:xlink="http://www.w3.org/1999/xlink" width="200" height="200" viewBox="0 0 200 200"><defs><linearGradient id="a" x1="0.304" y1="0.852" x2="0.735" y2="0.267" gradientUnits="objectBoundingBox"><stop offset="0" stop-color="#2636ca"/><stop offset="1" stop-color="#0bbccf"/></linearGradient><clipPath id="c"><rect width="200" height="200"/></clipPath></defs><g id="b" clip-path="url(#c)"><rect width="200" height="200" fill="#fff"/><g transform="translate(-1454 -264)"><g transform="translate(1454 264)" fill="#0a172d" stroke="#f2f7ff" stroke-width="2"><rect width="200" height="200" rx="16" stroke="none"/><rect x="1" y="1" width="198" height="198" rx="15" fill="none"/></g><g transform="translate(1490 303.404)" fill="url(#a)"><path d="M 97.7498779296875 120.1914825439453 L 30.25011253356934 120.1914825439453 C 27.21236228942871 120.1914825439453 24.53811264038086 118.251220703125 23.59557914733887 115.3633880615234 L 2.76059627532959 51.52630233764648 C 2.297562837600708 50.10763549804688 2.296879529953003 48.60766983032227 2.758612871170044 47.1885871887207 C 3.220329523086548 45.76950073242188 4.103512763977051 44.55713653564453 5.312695980072021 43.68255233764648 L 59.89756393432617 4.201452255249023 C 61.09883117675781 3.332568883895874 62.51742935180664 2.873318910598755 63.99999618530273 2.873318910598755 C 65.48255920410156 2.873318910598755 66.90116119384766 3.332568883895874 68.10243225097656 4.201452255249023 L 122.6873092651367 43.68255233764648 C 123.8964996337891 44.55713653564453 124.7796783447266 45.76950073242188 125.2413940429688 47.1885871887207 C 125.7031097412109 48.60766983032227 125.7024307250977 50.10763549804688 125.2394104003906 51.52630233764648 L 104.404411315918 115.3633880615234 C 103.4618988037109 118.251220703125 100.7876434326172 120.1914825439453 97.7498779296875 120.1914825439453 Z" stroke="none"/><path d="M 63.99999618530273 3.873306274414062 C 62.72921752929688 3.873306274414062 61.51326751708984 4.2669677734375 60.48361206054688 5.011711120605469 L 5.89874267578125 44.49282073974609 C 3.778396606445312 46.02645874023438 2.899307250976562 48.72830963134766 3.711235046386719 51.21601867675781 L 24.54621124267578 115.053108215332 C 25.35410308837891 117.5284042358398 27.64632415771484 119.1914901733398 30.25010681152344 119.1914901733398 L 97.74988555908203 119.1914901733398 C 100.3536834716797 119.1914901733398 102.6458892822266 117.5284194946289 103.4537582397461 115.053108215332 L 124.2887573242188 51.21603393554688 C 125.1006851196289 48.72830963134766 124.2215957641602 46.02645874023438 122.1012496948242 44.49282073974609 L 67.51637268066406 5.011711120605469 C 66.48672485351562 4.2669677734375 65.27078247070312 3.873306274414062 63.99999618530273 3.873306274414062 M 63.99999618530273 1.873306274414062 C 65.64472961425781 1.873306274414062 67.28947448730469 2.379264831542969 68.68850708007812 3.391181945800781 L 123.2733764648438 42.87229156494141 C 126.0898361206055 44.90941619873047 127.2685394287109 48.53212738037109 126.190071105957 51.83656311035156 L 105.3550491333008 115.6736526489258 C 104.2809448242188 118.964729309082 101.2118148803711 121.1914901733398 97.74988555908203 121.1914901733398 L 30.25010681152344 121.1914901733398 C 26.78819274902344 121.1914901733398 23.71907043457031 118.964729309082 22.64492034912109 115.6736526489258 L 1.809944152832031 51.83656311035156 C 0.7314529418945312 48.53212738037109 1.91015625 44.90941619873047 4.726615905761719 42.87229156494141 L 59.31148529052734 3.391181945800781 C 60.71052551269531 2.379264831542969 62.35526275634766 1.873306274414062 63.99999618530273 1.873306274414062 Z" stroke="none" fill="#f2f7ff"/></g></g></g></svg>