<svg xmlns="http://www.w3.org/2000/svg" xmlns:xlink="http://www.w3.org/1999/xlink" width="200" height="200" viewBox="0 0 200 200"><defs><linearGradient id="a" x1="0.5" x2="0.5" y2="0.832" gradientUnits="objectBoundingBox"><stop offset="0" stop-color="#0bbccf"/><stop offset="1" stop-color="#2636ca"/></linearGradient><clipPath id="c"><rect width="200" height="200"/></clipPath></defs><g id="b" clip-path="url(#c)"><rect width="200" height="200" fill="#fff"/><g transform="translate(-1035 -96)"><g transform="translate(1035 96)" fill="#0a172d" stroke="#f2f7ff" stroke-width="2"><rect width="200" height="200" rx="16" stroke="none"/><rect x="1" y="1" width="198" height="198" rx="15" fill="none"/></g><g transform="translate(1089.18 120.141)"><path d="M56.66,104.791H30.947a85.623,85.623,0,0,1,1.412-15.625,37.019,37.019,0,0,1,4.739-12,55.633,55.633,0,0,1,9.075-10.585q4.739-4.234,8.268-8.064a34.362,34.362,0,0,0,5.546-7.863A20.638,20.638,0,0,0,62,41.484a22.6,22.6,0,0,0-1.815-9.677,12.287,12.287,0,0,0-5.243-5.948,16.9,16.9,0,0,0-8.672-2.016,17.406,17.406,0,0,0-8.067,1.915A14.983,14.983,0,0,0,32.056,31.4a19.934,19.934,0,0,0-2.42,10.081H.395Q.7,27.674,6.747,18.7A36.579,36.579,0,0,1,23.183,5.295,57.753,57.753,0,0,1,46.274.859q14.117,0,24.2,4.637A33.526,33.526,0,0,1,85.9,18.9q5.344,8.77,5.344,21.371A34.465,34.465,0,0,1,87.818,55.9a53.422,53.422,0,0,1-8.974,12.6q-5.546,5.847-12.2,12.1a27.877,27.877,0,0,0-7.865,10.786A41.544,41.544,0,0,0,56.66,104.791ZM27.922,135.94a14.144,14.144,0,0,1,4.437-10.686q4.437-4.334,11.9-4.334,7.361,0,11.8,4.334a14.733,14.733,0,0,1,0,21.271q-4.437,4.334-11.8,4.334-7.462,0-11.9-4.334A14.235,14.235,0,0,1,27.922,135.94Z" transform="translate(0 0)" fill="url(#a)"/><path d="M56.652,104.778v1.032l1.032-1.018Zm-25.695,0-1.032-.011,1.032,1.043ZM32.368,89.16l-1.009-.214,0,.012ZM37.1,77.169l-.869-.557-.007.012Zm9.069-10.58-.688-.769-.015.013Zm13.8-15.921.923.461,0-.009Zm.2-18.843-.946.412.013.029Zm-5.24-5.945-.523.889.011.007Zm-16.727-.1.451.928.02-.01Zm-6.147,5.643-.872-.551-.01.017ZM29.648,41.5v1.032l1.032-1.015ZM.426,41.5l-1.032-.022L.426,42.531ZM6.774,18.726l-.854-.579v0ZM23.2,5.325l.4.951.008,0Zm47.258.2-.431.937.008,0Zm15.417,13.4-.884.532,0,0Zm1.915,36.98.92.467,0-.005ZM66.628,80.6l.688.769.018-.017Zm-7.86,10.782-.966-.362-.006.015Zm-26.4,33.856.712.747.009-.009Zm23.679,0-.721.738.017.016Zm0,21.262-.713-.746-.008.007Zm.6-42.748H30.958v2.064H56.652ZM31.989,104.79A84.607,84.607,0,0,1,33.38,89.362l-2.023-.4a86.627,86.627,0,0,0-1.431,15.809Zm1.388-15.416a35.98,35.98,0,0,1,4.6-11.66l-1.752-1.091a38.042,38.042,0,0,0-4.869,12.322Zm4.595-11.648a54.587,54.587,0,0,1,8.9-10.381l-1.4-1.512a56.633,56.633,0,0,0-9.235,10.779Zm8.888-10.368q4.765-4.259,8.334-8.131l-1.518-1.4q-3.486,3.785-8.191,7.991Zm8.334-8.131a35.369,35.369,0,0,0,5.706-8.1l-1.846-.923a33.312,33.312,0,0,1-5.378,7.622Zm5.71-8.106a21.664,21.664,0,0,0,2.12-9.622H60.961a19.6,19.6,0,0,1-1.911,8.717Zm2.12-9.622a23.61,23.61,0,0,0-1.913-10.115l-1.865.883A21.59,21.59,0,0,1,60.961,41.5Zm-1.9-10.086a13.311,13.311,0,0,0-5.674-6.429l-1.024,1.792a11.25,11.25,0,0,1,4.806,5.461Zm-5.662-6.422a17.9,17.9,0,0,0-9.189-2.158V24.9a15.867,15.867,0,0,1,8.142,1.873Zm-9.189-2.158a18.421,18.421,0,0,0-8.532,2.028l.943,1.836a16.359,16.359,0,0,1,7.59-1.8Zm-8.512,2.018a16.005,16.005,0,0,0-6.568,6.02l1.745,1.1a13.943,13.943,0,0,1,5.726-5.266Zm-6.578,6.036a20.941,20.941,0,0,0-2.567,10.594l2.063.033c.065-4.051.849-7.212,2.269-9.559Zm-1.536,9.579H.426v2.064H29.648ZM1.458,41.521c.2-9.059,2.279-16.444,6.172-22.218L5.919,18.15C1.751,24.332-.4,32.13-.605,41.476ZM7.629,19.305A35.523,35.523,0,0,1,23.6,6.276l-.8-1.9A37.587,37.587,0,0,0,5.92,18.147ZM23.608,6.272A56.67,56.67,0,0,1,46.274,1.923V-.141A58.726,58.726,0,0,0,22.79,4.377ZM46.274,1.923q13.942,0,23.752,4.541l.862-1.875Q60.562-.161,46.274-.141Zm23.76,4.544A32.474,32.474,0,0,1,84.99,19.46L86.758,18.4A34.535,34.535,0,0,0,70.88,4.585Zm14.959,13c3.442,5.649,5.19,12.575,5.19,20.825h2.064c0-8.543-1.812-15.86-5.491-21.9Zm5.19,20.825a33.429,33.429,0,0,1-3.317,15.157l1.846.923a35.485,35.485,0,0,0,3.535-16.08ZM86.868,55.441a52.371,52.371,0,0,1-8.8,12.352l1.5,1.42a54.426,54.426,0,0,0,9.139-12.839Zm-8.8,12.352q-5.519,5.82-12.15,12.05l1.413,1.5Q74,75.082,79.569,69.214ZM65.94,79.826A28.885,28.885,0,0,0,57.8,91.015l1.932.725a26.845,26.845,0,0,1,7.581-10.375ZM57.8,91.03a42.554,42.554,0,0,0-2.176,13.735l2.063.027A40.52,40.52,0,0,1,59.74,91.724Zm-28.83,44.885a13.107,13.107,0,0,1,4.114-9.934l-1.425-1.493A15.169,15.169,0,0,0,26.9,135.915Zm4.123-9.944c2.725-2.663,6.409-4.039,11.169-4.039v-2.064c-5.182,0-9.425,1.513-12.611,4.627Zm11.169-4.039c4.688,0,8.341,1.373,11.068,4.039l1.442-1.475c-3.184-3.112-7.391-4.627-12.51-4.627Zm11.085,4.055a12.957,12.957,0,0,1,4.207,9.927h2.064a15.016,15.016,0,0,0-4.862-11.436Zm4.207,9.927a13.047,13.047,0,0,1-4.215,9.834l1.426,1.492a15.107,15.107,0,0,0,4.853-11.326Zm-4.224,9.841c-2.728,2.666-6.38,4.04-11.068,4.04v2.064c5.12,0,9.327-1.516,12.51-4.627ZM44.259,149.8c-4.76,0-8.444-1.376-11.169-4.04l-1.442,1.477c3.187,3.114,7.429,4.627,12.611,4.627Zm-11.169-4.04a13.2,13.2,0,0,1-4.123-9.841H26.9a15.259,15.259,0,0,0,4.744,11.318Z" transform="translate(0 0)" fill="#f2f7ff"/></g></g></g></svg>