<svg xmlns="http://www.w3.org/2000/svg" xmlns:xlink="http://www.w3.org/1999/xlink" width="200" height="200" viewBox="0 0 200 200"><defs><linearGradient id="a" x1="0.785" y1="0.227" x2="0.239" y2="0.79" gradientUnits="objectBoundingBox"><stop offset="0" stop-color="#0bbccf"/><stop offset="1" stop-color="#2636ca"/></linearGradient><clipPath id="c"><rect width="200" height="200"/></clipPath></defs><g id="b" clip-path="url(#c)"><rect width="200" height="200" fill="#fff"/><g transform="translate(-1684 -264)"><g transform="translate(1684 264)" fill="#0a172d" stroke="#f2f7ff" stroke-width="2"><rect width="200" height="200" rx="16" stroke="none"/><rect x="1" y="1" width="198" height="198" rx="15" fill="none"/></g><g transform="translate(1720 300)" fill="url(#a)"><path d="M 87.19596862792969 127 L 40.80403518676758 127 C 38.93426513671875 127 37.17641830444336 126.2718658447266 35.85428237915039 124.9497528076172 L 3.050250053405762 92.14569854736328 C 1.728133320808411 90.82358551025391 1 89.06573486328125 1 87.19595336914062 L 1.000016689300537 40.80403518676758 C 1.000016689300537 38.93424987792969 1.728150010108948 37.17639923095703 3.050266742706299 35.85430145263672 L 35.85430145263672 3.050250053405762 C 37.17643356323242 1.728133320808411 38.93429946899414 1 40.8040657043457 1 L 87.19596862792969 1.000016689300537 C 89.06573486328125 1.000016689300537 90.82358551025391 1.728150010108948 92.14571380615234 3.050266742706299 L 124.9497680664062 35.85428237915039 C 126.2718811035156 37.17641830444336 127 38.93428421020508 127 40.80405044555664 L 127 87.19596862792969 C 127 89.06573486328125 126.2718658447266 90.82358551025391 124.9497299194336 92.14573669433594 L 92.14571380615234 124.9497680664062 C 90.82358551025391 126.2718811035156 89.06573486328125 127 87.19596862792969 127 Z" stroke="none"/><path d="M 40.80405426025391 0 L 40.80405426025391 2 C 39.20140075683594 2 37.69467163085938 2.624107360839844 36.56141662597656 3.757362365722656 L 3.757362365722656 36.5614013671875 C 2.624130249023438 37.69463348388672 2.000015258789062 39.20136260986328 2.000015258789062 40.80403900146484 L 2 87.19594573974609 C 2 88.79859924316406 2.624107360839844 90.30532836914062 3.757362365722656 91.43858337402344 L 36.5614013671875 124.2426376342773 C 37.69465637207031 125.3758926391602 39.20138549804688 126 40.80403900146484 126 L 87.19596862792969 126 C 88.79861450195312 126 90.30534362792969 125.3758926391602 91.4385986328125 124.2426376342773 L 124.2426147460938 91.43863677978516 C 125.3758697509766 90.30535888671875 125.9999847412109 88.79861450195312 125.9999847412109 87.19596862792969 L 126 40.80405426025391 C 126 39.20140075683594 125.3758926391602 37.69465637207031 124.2426376342773 36.5614013671875 L 91.4385986328125 3.757362365722656 C 90.30535888671875 2.624130249023438 88.79863739013672 2.000015258789062 87.19596862792969 2.000015258789062 L 40.80405426025391 2 L 40.80405426025391 0 M 40.80405426025391 0 L 87.19596862792969 1.52587890625e-05 C 89.31768798828125 1.52587890625e-05 91.35252380371094 0.8428573608398438 92.85281372070312 2.343147277832031 L 125.656852722168 35.14717864990234 C 127.1571426391602 36.64749145507812 128 38.68231201171875 128 40.80405426025391 L 127.9999847412109 87.19596862792969 C 127.9999847412109 89.31771087646484 127.1571273803711 91.35252380371094 125.656852722168 92.85283660888672 L 92.85281372070312 125.656852722168 C 91.35252380371094 127.1571426391602 89.31768798828125 128 87.19596862792969 128 L 40.80403900146484 128 C 38.68231201171875 128 36.64747619628906 127.1571426391602 35.14717864990234 125.656852722168 L 2.343147277832031 92.85279846191406 C 0.8428573608398438 91.35250854492188 0 89.31767272949219 0 87.19594573974609 L 1.52587890625e-05 40.80403900146484 C 1.52587890625e-05 38.68228912353516 0.8428573608398438 36.64747619628906 2.343147277832031 35.14717864990234 L 35.14720153808594 2.343147277832031 C 36.64749145507812 0.8428573608398438 38.68232727050781 0 40.80405426025391 0 Z" stroke="none" fill="#f2f7ff"/></g></g></g></svg>