<svg xmlns="http://www.w3.org/2000/svg" xmlns:xlink="http://www.w3.org/1999/xlink" width="200" height="200" viewBox="0 0 200 200"><defs><linearGradient id="a" x1="0.706" y1="0.5" x2="0.143" y2="0.887" gradientUnits="objectBoundingBox"><stop offset="0" stop-color="#0bbccf"/><stop offset="1" stop-color="#2636ca"/></linearGradient><clipPath id="c"><rect width="200" height="200"/></clipPath></defs><g id="b" clip-path="url(#c)"><rect width="200" height="200" fill="#fff"/><g transform="translate(-1684 -34)"><g transform="translate(1684 34)" fill="#0a172d" stroke="#f2f7ff" stroke-width="2"><rect width="200" height="200" rx="16" stroke="none"/><rect x="1" y="1" width="198" height="198" rx="15" fill="none"/></g><g transform="translate(1720 76.8)" fill="url(#a)"><path d="M 114.1152496337891 109.3999938964844 L 13.88473320007324 109.3999938964844 C 11.35151672363281 109.3999938964844 9.084133148193359 108.0895767211914 7.819466590881348 105.8946228027344 C 6.554800033569336 103.6996917724609 6.558266639709473 101.0808563232422 7.828750133514404 98.88927459716797 L 57.94400024414062 12.44045925140381 C 59.21060180664062 10.25557613372803 61.47453308105469 8.951176643371582 64 8.951176643371582 C 66.52545166015625 8.951176643371582 68.78938293457031 10.25557613372803 70.05598449707031 12.44045925140381 L 120.1712341308594 98.88927459716797 C 121.4417190551758 101.0808563232422 121.445198059082 103.6996765136719 120.180534362793 105.8946228027344 C 118.9158630371094 108.0895767211914 116.6484680175781 109.3999938964844 114.1152496337891 109.3999938964844 Z" stroke="none"/><path d="M 63.99998474121094 9.951179504394531 C 61.83529663085938 9.951179504394531 59.89479827880859 11.06924438476562 58.80915069580078 12.94199371337891 L 8.693901062011719 99.39080810546875 C 7.60491943359375 101.2693099975586 7.601936340332031 103.5140075683594 8.685935974121094 105.395393371582 C 9.769935607910156 107.2767791748047 11.71341705322266 108.3999938964844 13.88473510742188 108.3999938964844 L 114.1152648925781 108.3999786376953 C 116.2863464355469 108.3999786376953 118.229736328125 107.2766952514648 119.3137969970703 105.3951950073242 C 120.397834777832 103.5137252807617 120.3949508666992 101.2691116333008 119.3060836791992 99.39080810546875 L 69.19083404541016 12.94199371337891 C 68.10517883300781 11.06924438476562 66.16466522216797 9.951179504394531 63.99998474121094 9.951179504394531 M 63.99999237060547 7.951179504394531 C 66.68997192382812 7.951179504394531 69.37995147705078 9.280426025390625 70.92111206054688 11.93892669677734 L 121.0363693237305 98.38774108886719 C 124.1281509399414 103.721076965332 120.2771759033203 110.3990097045898 114.1152496337891 110.3999786376953 L 13.88473510742188 110.3999938964844 C 7.720046997070312 110.3999938964844 3.871833801269531 103.721076965332 6.963615417480469 98.38774108886719 L 57.07886505126953 11.93892669677734 C 58.62003326416016 9.280426025390625 61.31001281738281 7.951179504394531 63.99999237060547 7.951179504394531 Z" stroke="none" fill="#f2f7ff"/></g></g></g></svg>